<?xml version="1.0" encoding="UTF-8"?>
<svg width="1892px" height="250px" viewBox="0 0 1892 250" version="1.1" xmlns="http://www.w3.org/2000/svg" xmlns:xlink="http://www.w3.org/1999/xlink">
    <title>Wordmark / Dark</title>
    <g id="Wordmark-/-Dark" stroke="none" stroke-width="1" fill="none" fill-rule="evenodd">
        <path d="M294,201 L294,43 L324.171739,43 L417.473449,156.85875 L402.877861,156.85875 L402.877861,43 L439,43 L439,201 L408.828261,201 L315.523024,87.14125 L330.118611,87.14125 L330.118611,201 L294,201 Z M532.498239,203 C519.654496,203 508.236336,200.31815 498.243758,194.954449 C488.25118,189.590749 480.379076,182.19315 474.627446,172.761653 C468.875815,163.330155 466,152.552731 466,140.429379 C466,128.214218 468.884619,117.419727 474.653856,108.045904 C480.423094,98.672081 488.285221,91.3209746 498.240237,85.9925847 C508.195253,80.6641949 519.614587,78 532.498239,78 C545.384239,78 556.844657,80.6612524 566.879491,85.9837571 C576.914326,91.3062618 584.776452,98.649129 590.465871,108.012359 C596.15529,117.375589 599,128.182439 599,140.43291 C599,152.586864 596.16116,163.371351 590.483479,172.78637 C584.805798,182.201389 576.93252,189.590749 566.863645,194.954449 C556.79477,200.31815 545.339635,203 532.498239,203 Z M532.498239,174.133475 C538.430635,174.133475 543.715093,172.797552 548.351611,170.125706 C552.98813,167.453861 556.661543,163.567914 559.371853,158.467867 C562.082162,153.36782 563.437316,147.357345 563.437316,140.436441 C563.437316,133.388418 562.082162,127.366761 559.371853,122.371469 C556.661543,117.376177 552.98813,113.542608 548.351611,110.870763 C543.715093,108.198917 538.454111,106.862994 532.568667,106.862994 C526.680876,106.862994 521.418721,108.198917 516.782202,110.870763 C512.145684,113.542608 508.449968,117.376177 505.695054,122.371469 C502.940141,127.366761 501.562684,133.388418 501.562684,140.436441 C501.562684,147.357345 502.940141,153.36782 505.695054,158.467867 C508.449968,163.567914 512.142749,167.453861 516.773399,170.125706 C521.404048,172.797552 526.645662,174.133475 532.498239,174.133475 Z M622,201 L622,79.7086269 L655.810954,79.7086269 L655.810954,114.053789 L651.143819,104.136707 C654.750511,95.5148937 660.564582,89.0033224 668.586034,84.6019935 C676.607486,80.2006645 686.412142,78 698,78 L698,110.439251 C696.454952,110.230223 695.062158,110.073452 693.821617,109.968938 C692.581077,109.864424 691.325725,109.812167 690.055563,109.812167 C680.216547,109.812167 672.328984,112.574741 666.392872,118.099888 C660.456761,123.625036 657.488705,132.179326 657.488705,143.76276 L657.488705,201 L622,201 Z M773.398494,203 C758.983948,203 747.796284,199.378216 739.835502,192.134649 C731.874719,184.891082 727.894328,174.042181 727.894328,159.587945 L727.894328,53 L763.21374,53 L763.21374,158.999295 C763.21374,164.119727 764.551542,168.095758 767.227148,170.927388 C769.902754,173.759018 773.569478,175.174833 778.227319,175.174833 C783.878048,175.174833 788.68329,173.683821 792.643045,170.701798 L802,195.502644 C798.438815,198.031136 794.131196,199.912819 789.077143,201.147691 C784.02309,202.382564 778.796873,203 773.398494,203 Z M709,109.626718 L709,82.6157913 L793.488531,82.6157913 L793.488531,109.626718 L709,109.626718 Z M933.341726,43 L970,43 L970,201 L933.341726,201 L933.341726,43 Z M861.654747,201 L825,201 L825,43 L861.654747,43 L861.654747,201 Z M936.001241,136.227054 L858.861198,136.227054 L858.861198,105.378259 L936.001241,105.378259 L936.001241,136.227054 Z M1041.05463,114.075312 L1117.41859,114.075312 L1117.41859,143.492232 L1041.05463,143.492232 L1041.05463,114.075312 Z M1043.86414,201 L1007,201 L1007,43 L1127,43 L1127,72.4169196 L1043.86414,72.4169196 L1043.86414,201 Z M1197.98021,203 C1187.84879,203 1178.8614,201.075942 1171.01805,197.227825 C1163.17471,193.379708 1157.0442,187.413776 1152.62652,179.33003 C1148.20884,171.246284 1146,160.968982 1146,148.498124 L1146,80 L1181.16298,80 L1181.16298,143.242045 C1181.16298,153.411313 1183.31606,160.859187 1187.62221,165.585665 C1191.92836,170.312144 1197.96613,172.675383 1205.73551,172.675383 C1211.18981,172.675383 1216.02543,171.501103 1220.24235,169.152542 C1224.45928,166.803981 1227.77929,163.19894 1230.20238,158.337419 C1232.62547,153.475899 1233.83702,147.359072 1233.83702,139.98694 L1233.83702,80 L1269,80 L1269,201.287899 L1235.49937,201.287899 L1235.49937,167.842045 L1241.79306,177.674295 C1237.61605,186.023428 1231.59883,192.331663 1223.7414,196.598998 C1215.88396,200.866333 1207.2969,203 1197.98021,203 Z M1351.39849,203 C1336.98395,203 1325.79628,199.378216 1317.8355,192.134649 C1309.87472,184.891082 1305.89433,174.042181 1305.89433,159.587945 L1305.89433,53 L1341.21374,53 L1341.21374,158.999295 C1341.21374,164.119727 1342.55154,168.095758 1345.22715,170.927388 C1347.90275,173.759018 1351.56948,175.174833 1356.22732,175.174833 C1361.87805,175.174833 1366.68329,173.683821 1370.64304,170.701798 L1380,195.502644 C1376.43881,198.031136 1372.1312,199.912819 1367.07714,201.147691 C1362.02309,202.382564 1356.79687,203 1351.39849,203 Z M1287,109.626718 L1287,82.6157913 L1371.48853,82.6157913 L1371.48853,109.626718 L1287,109.626718 Z M1450.98021,203 C1440.84879,203 1431.8614,201.075942 1424.01805,197.227825 C1416.17471,193.379708 1410.0442,187.413776 1405.62652,179.33003 C1401.20884,171.246284 1399,160.968982 1399,148.498124 L1399,80 L1434.16298,80 L1434.16298,143.242045 C1434.16298,153.411313 1436.31606,160.859187 1440.62221,165.585665 C1444.92836,170.312144 1450.96613,172.675383 1458.73551,172.675383 C1464.18981,172.675383 1469.02543,171.501103 1473.24235,169.152542 C1477.45928,166.803981 1480.77929,163.19894 1483.20238,158.337419 C1485.62547,153.475899 1486.83702,147.359072 1486.83702,139.98694 L1486.83702,80 L1522,80 L1522,201.287899 L1488.49937,201.287899 L1488.49937,167.842045 L1494.79306,177.674295 C1490.61605,186.023428 1484.59883,192.331663 1476.7414,196.598998 C1468.88396,200.866333 1460.2969,203 1450.98021,203 Z M1555,201 L1555,79.7086269 L1588.81095,79.7086269 L1588.81095,114.053789 L1584.14382,104.136707 C1587.75051,95.5148937 1593.56458,89.0033224 1601.58603,84.6019935 C1609.60749,80.2006645 1619.41214,78 1631,78 L1631,110.439251 C1629.45495,110.230223 1628.06216,110.073452 1626.82162,109.968938 C1625.58108,109.864424 1624.32573,109.812167 1623.05556,109.812167 C1613.21655,109.812167 1605.32898,112.574741 1599.39287,118.099888 C1593.45676,123.625036 1590.4887,132.179326 1590.4887,143.76276 L1590.4887,201 L1555,201 Z M1711.21591,203 C1697.33035,203 1685.18461,200.303437 1674.77868,194.910311 C1664.37275,189.517185 1656.30815,182.098399 1650.58489,172.653955 C1644.86163,163.20951 1642,152.476224 1642,140.454096 C1642,128.311911 1644.80101,117.533898 1650.40302,108.120056 C1656.00504,98.7062147 1663.70825,91.3327448 1673.51266,85.9996469 C1683.31707,80.666549 1694.39456,78 1706.74513,78 C1718.67664,78 1729.41629,80.524129 1738.96408,85.572387 C1748.51187,90.620645 1756.07147,97.8452213 1761.64288,107.246116 C1767.21429,116.64701 1770,127.897599 1770,140.997881 C1770,142.35146 1769.94762,143.893362 1769.84285,145.623588 C1769.73809,147.353814 1769.61037,148.94162 1769.45969,150.387006 L1670.62572,150.387006 L1670.62572,129.84322 L1750.79258,129.84322 L1737.17188,135.987288 C1737.2637,129.711394 1736.01122,124.219986 1733.41445,119.513065 C1730.81767,114.806144 1727.2627,111.124411 1722.74954,108.467867 C1718.23638,105.811323 1712.96044,104.483051 1706.9217,104.483051 C1700.88532,104.483051 1695.57288,105.811323 1690.98438,108.467867 C1686.39589,111.124411 1682.84092,114.829096 1680.31948,119.581921 C1677.79805,124.334746 1676.53733,129.939736 1676.53733,136.396893 L1676.53733,141.898305 C1676.53733,148.536723 1678.0011,154.352401 1680.92865,159.345339 C1683.8562,164.338277 1688.00622,168.185381 1693.37869,170.886653 C1698.75116,173.587924 1705.04298,174.938559 1712.25415,174.938559 C1718.70724,174.938559 1724.37047,173.958098 1729.24383,171.997175 C1734.1172,170.036252 1738.63389,167.048964 1742.79391,163.035311 L1761.55283,183.384887 C1755.88843,189.771422 1748.85383,194.637241 1740.44904,197.982345 C1732.04425,201.327448 1722.29988,203 1711.21591,203 Z M1834.61223,203 C1824.34344,203 1814.42938,201.755885 1804.87005,199.267655 C1795.31071,196.779426 1787.68736,193.682674 1782,189.977401 L1793.82416,164.758475 C1799.33269,168.223635 1805.89657,171.026718 1813.5158,173.167726 C1821.13503,175.308734 1828.68014,176.379237 1836.15113,176.379237 C1844.23392,176.379237 1849.98069,175.39701 1853.39146,173.432556 C1856.80224,171.468103 1858.50762,168.763889 1858.50762,165.319915 C1858.50762,162.511535 1857.18226,160.375235 1854.53153,158.911017 C1851.8808,157.446798 1848.37884,156.329214 1844.02567,155.558263 C1839.6725,154.787312 1834.88224,154.04049 1829.6549,153.317797 C1824.42756,152.595104 1819.18552,151.578154 1813.92877,150.266949 C1808.67201,148.955744 1803.86764,147.035428 1799.51564,144.506003 C1795.16365,141.976577 1791.66169,138.527895 1789.00979,134.159958 C1786.35788,129.79202 1785.03193,124.113465 1785.03193,117.124294 C1785.03193,109.471281 1787.26793,102.708098 1791.73993,96.8347458 C1796.21194,90.9613936 1802.6311,86.3539313 1810.99743,83.0123588 C1819.36376,79.6707863 1829.4296,78 1841.19493,78 C1849.59538,78 1858.06348,78.8968927 1866.59923,80.690678 C1875.13498,82.4844633 1882.27713,85.068032 1888.02567,88.4413842 L1876.20151,113.660311 C1870.33061,110.195151 1864.43676,107.822269 1858.51997,106.541667 C1852.60319,105.261064 1846.87288,104.620763 1841.32906,104.620763 C1833.39922,104.620763 1827.63068,105.677731 1824.02342,107.791667 C1820.41617,109.905603 1818.61255,112.579802 1818.61255,115.814266 C1818.61255,118.803908 1819.9385,121.068503 1822.59041,122.608051 C1825.24231,124.147599 1828.74485,125.348164 1833.09803,126.209746 C1837.4512,127.071328 1842.24087,127.864054 1847.46703,128.587924 C1852.69319,129.311794 1857.91994,130.343456 1863.14728,131.68291 C1868.37462,133.022363 1873.16429,134.93444 1877.51628,137.419138 C1881.86828,139.903837 1885.37023,143.307792 1888.02214,147.631003 C1890.67405,151.954214 1892,157.564501 1892,164.461864 C1892,171.93597 1889.75635,178.579096 1885.26905,184.391243 C1880.78175,190.20339 1874.2714,194.757886 1865.73801,198.054732 C1857.20461,201.351577 1846.82935,203 1834.61223,203 Z" id="Combined-Shape" fill="#002148" fill-rule="nonzero"></path>
        <g id="Logo" transform="translate(6.25, 6.75)">
            <path d="M77,77 C66.7359266,73.8778597 54.4859266,74.2945264 40.25,78.25 L19.5,118.75 C6.5,92.9166667 6.39488462e-14,80 6.39488462e-14,80 C6.39488462e-14,80 5.83333333,68.4166667 17.5,45.25 L45.25,45.25 L45.25,17.5 L80,5.72875081e-13 L78.25,40.25 C77.7214265,53.713748 77.3322012,65.9921577 77,77 Z M160.5,77 C164.342895,67.0281535 163.926228,54.7781535 159.25,40.25 L118.75,19.5 C144.583333,6.5 157.5,7.75756842e-15 157.5,7.75756842e-15 C157.5,7.75756842e-15 169.083333,5.83333333 192.25,17.5 L192.25,45.25 L220,45.25 L237.5,80 L197.25,78.25 C183.786252,77.7214265 171.507842,77.3322012 160.5,77 Z M77,160.5 C74.7511232,172.362506 75.1677899,184.612506 78.25,197.25 L118.75,218 C92.9166667,231 80,237.5 80,237.5 C80,237.5 68.4166667,231.666667 45.25,220 L45.25,192.25 L17.5,192.25 L-9.31226752e-15,157.5 L40.25,159.25 C53.713748,159.778573 65.9921577,160.167799 77,160.5 Z M160.5,160.5 C172.613518,163.516083 184.863518,163.099416 197.25,159.25 L218,118.75 C231,144.583333 237.5,157.5 237.5,157.5 C237.5,157.5 231.666667,169.083333 220,192.25 L192.25,192.25 L192.25,220 L157.5,237.5 L159.25,197.25 C159.778573,183.786252 160.167799,171.507842 160.5,160.5 Z" id="Combined-Shape" fill="#002148"></path>
            <path d="M77,77 L57,45.25 L40.25,78.25 C51.7235566,77.7709615 63.9735566,77.3542948 77,77 Z M78.25,40.25 C78.4052144,35.3304326 78.9885478,21.9137659 80,5.68434189e-13 L118.75,19.5 L78.25,40.25 Z M160.5,77 L192.25,57 L159.25,40.25 C159.729039,51.7235566 160.145705,63.9735566 160.5,77 Z M197.25,78.25 C202.169567,78.4052144 215.586234,78.9885478 237.5,80 L218,118.75 L197.25,78.25 Z M77,160.5 L45.25,180.5 L78.25,197.25 C77.7709615,185.776443 77.3542948,173.526443 77,160.5 Z M40.25,159.25 C35.3304326,159.094786 21.9137659,158.511452 2.49761523e-14,157.5 L19.5,118.75 L40.25,159.25 Z M160.5,160.5 L180.5,192.25 L197.25,159.25 C185.776443,159.729039 173.526443,160.145705 160.5,160.5 Z M159.25,197.25 C159.094786,202.169567 158.511452,215.586234 157.5,237.5 L118.75,218 L159.25,197.25 Z" id="Combined-Shape" fill="#52AEAD"></path>
        </g>
    </g>
</svg>